<?xml version="1.0" encoding="utf-8"?>
<!-- Generator: Adobe Illustrator 14.0.0, SVG Export Plug-In . SVG Version: 6.00 Build 43363)  -->
<!DOCTYPE svg PUBLIC "-//W3C//DTD SVG 1.1//EN" "http://www.w3.org/Graphics/SVG/1.1/DTD/svg11.dtd">
<svg version="1.1" id="Calque_1" xmlns="http://www.w3.org/2000/svg" xmlns:xlink="http://www.w3.org/1999/xlink" x="0px" y="0px"
	 width="774.17px" height="433.669px" viewBox="0 0 774.17 433.669" enable-background="new 0 0 774.17 433.669"
	 xml:space="preserve">
<path fill-rule="evenodd" clip-rule="evenodd" d="M770.23,376.296c-1.768-3.941,0.184-11.646,0.24-16.32
	c0.156-13.098,1.268-27.056-1.2-38.88c-2.153-10.317-15.354-22.92-22.32-29.28c-0.002-4.161,3.106-10.427,1.68-15.36
	c-1.174-4.062-19.424-12-24.24-13.44c-0.335-3.268-0.785-7.827-1.68-11.28c4.62-3.516,12.024-5.236,11.28-14.4
	c-0.557-6.865-4.565-10.549-7.44-15.12c-7.539-11.984-16.361-21.958-24.96-32.64c-2.32-2.56-4.641-5.12-6.96-7.68
	c-2.223-1.392-7.483-1.257-10.56-1.44c-1.839-2.16-3.68-4.32-5.52-6.48c-7.16-5.738-15.325-10.11-23.521-14.88
	c-4.648-2.706-18.403-7.369-21.12-10.8c-1.44-4.239-2.88-8.48-4.32-12.72c-3.564-9.05-6.967-18.811-11.76-26.88
	c-14.167-23.855-31.458-35.602-64.081-41.28c-4.934-0.859-12.652-1.673-18.479-0.72c-9.6,1.28-19.201,2.56-28.8,3.84
	c-1.12-15.838-2.24-31.681-3.36-47.52c-1.204-7.641,1.374-17.169-3.6-20.88c-4.717-3.519-21.558-1.894-27.84-0.72
	c-20.008,3.739-39.858,6.642-57.84,12c-6.573,1.959-15.696,2.64-18.96,7.92c-5.253,8.497-5.414,25.816-7.68,37.2
	c-5.061,25.421-7.162,64.762-1.44,90.72c1.68,7.12,3.36,14.241,5.04,21.36c1.6,9.439,3.2,18.881,4.8,28.32
	c1.2,5.2,2.4,10.4,3.6,15.6c-1.6,2.64-3.2,5.28-4.8,7.92c-3.903,8.716-7.969,13.513-7.92,26.88c-3.919,0.88-7.84,1.76-11.76,2.64
	c-4.817,7.574-4.663,17.994-8.64,26.16c-1.419,1.829-5.329,3.296-8.16,2.4c-0.88-0.485-0.524-0.012-0.72-1.2
	c-2.309-0.762-4.459-0.599-5.76,0.72c-0.32,0-0.64,0-0.96,0c1.176-5.418-1.698-6.624-6.96-7.2c0.621,1.703,1.733,1.202,2.16,3.12
	c-0.846,1.884-2.856,3.123-5.52,3.12c-0.16-0.08-0.32-0.16-0.48-0.24c-0.964-1.586-0.847-2.76-0.72-5.28
	c-0.08-0.08-0.16-0.16-0.24-0.24c-4.033,0.24-6.798,1.036-8.4,3.84c-0.24,0-0.48,0-0.72,0c-0.24-0.88-0.48-1.76-0.72-2.64
	c-4.286-0.87-6.027,3.498-10.8,2.16c-0.88-0.485-0.524-0.013-0.72-1.2c-1.6-0.16-3.201-0.32-4.8-0.48
	c-0.989,0.907-1.499,1.837-3.12,2.16c-1.12-1.12-2.24-2.24-3.36-3.36c-0.08-0.72-0.16-1.44-0.24-2.16c0.72-0.16,1.44-0.32,2.16-0.48
	c-0.828-2-6.517-2.284-9.12-2.4c-0.32,2-0.64,4-0.96,6c-0.08,0.08-0.16,0.16-0.24,0.24c-0.24,0-0.48,0-0.72,0
	c-0.642-1.118-0.8-2.562-0.72-4.56c-3.149-1.262-6.037-1.072-7.2,2.64c-0.16,0.08-0.32,0.16-0.48,0.24
	c-0.48-0.96-0.96-1.92-1.44-2.88c-3.573,0.749-6.742,4.385-10.8,2.64c-0.748-0.486-0.514-0.114-0.72-1.2
	c-0.56-0.16-1.12-0.32-1.68-0.48c-2.978-0.143-4.157,0.304-5.28,1.92c-0.16,0.08-0.32,0.16-0.48,0.24c0.08-1.92,0.16-3.84,0.24-5.76
	c-1.899-1.25-5.045-2.265-7.92-2.4c0.566,0.971,0.85,1.2,1.92,1.68c-0.08,0.96-0.16,1.92-0.24,2.88
	c-1.528,0.937-3.627,2.369-5.52,1.44c-1.537-0.84-1.333-3.045-0.96-5.04c-4.154-1.146-7.818,1.091-9.36,3.6
	c-0.24,0.08-0.48,0.16-0.72,0.24c-0.606-0.915-0.844-1.788-1.2-3.12c-5.011,0.531-6.155,3.003-12,2.88
	c-0.16-0.479-0.32-0.96-0.48-1.44c-0.16-0.08-0.32-0.16-0.48-0.24c-4.506-0.011-4.985,1.643-7.92,2.16
	c-1.725-1.086-3.441-2.369-3.6-5.04c0.8-0.32,1.6-0.64,2.4-0.96c-1.64-1.785-6.488-2.254-9.84-2.16c-0.24,2-0.48,4-0.72,6
	c-0.56,0-1.12,0-1.68,0c-0.645-1.181-0.799-2.751-0.72-4.8c-0.64-0.32-1.28-0.64-1.92-0.96c-3.615,0.219-4.354,2.452-6.24,4.32
	c-1-0.799-1.248-1.734-1.68-3.12c-4.667,1.061-6.212,3.286-12,3.12c-0.32-0.56-0.64-1.12-0.96-1.68c-1.68,0-3.36,0-5.04,0
	c-0.74,0.602-1.768,1.186-2.16,2.16c-0.32,0-0.64,0-0.96,0c0.357-1.617,1.282-3.951,0.24-5.52c-1.192-1.636-5.044-2.042-7.2-2.64
	c-0.08,0.08-0.16,0.16-0.24,0.24c0.613,1.699,1.538,1.261,1.68,3.6c-1.457,1.683-3.05,2.919-6.24,2.88c-0.4-0.4-0.8-0.8-1.2-1.2
	c-1.021-1.108-0.613-2.822-0.48-4.8c-0.08-0.08-0.16-0.16-0.24-0.24c-3.547,0.195-7.964,0.716-8.88,3.84
	c-0.678,0.311-0.683,0.448-1.44,0.24c-1.105-0.671-1.142-1.929-1.92-2.88c-4.075,1.676-7.11,3.747-12.72,3.12
	c-0.08-0.48-0.16-0.96-0.24-1.44c-1.84-0.08-3.68-0.16-5.52-0.24c-1.005,1.25-1.925,2.511-4.08,2.64
	c-1.353-1.142-2.983-1.958-3.36-4.08c0-0.32,0-0.64,0-0.96c0.523-0.772,1.17-0.71,2.16-0.96c0-0.16,0-0.32,0-0.48
	c-1.891-1.662-7.531-1.925-10.8-1.92c0.035,2.294,0.027,4.875-0.48,6.48c-0.943,0.432-1.241,0.35-2.64,0.24
	c-0.686-1.891-1.595-4.454-2.16-6c-4.63,0.196-4.539,3.154-7.2,5.04c-0.16,0.08-0.32,0.16-0.48,0.24c-0.4-0.4-0.8-0.8-1.2-1.2
	c-0.08-0.64-0.16-1.28-0.24-1.92c-5.746,0.621-6.489,4.181-13.68,4.08c-0.24-0.48-0.48-0.96-0.72-1.44
	c-1.84,0.08-3.68,0.16-5.52,0.24c-0.857,0.469-1.54,1.2-1.92,2.16c-0.48,0.16-0.96,0.32-1.44,0.48
	c-0.229-1.618,0.559-3.95-0.48-5.52c-1.144-1.552-5.583-1.703-7.92-1.92c-0.08,0.16-0.16,0.32-0.24,0.48
	c0.64,0.64,1.28,1.28,1.92,1.92c-0.08,0.479-0.16,0.96-0.24,1.44c-0.994,2.489-3.808,3.26-7.2,3.12c-0.16-0.08-0.32-0.16-0.48-0.24
	c-0.818-1.344-1.055-2.846-0.96-5.28c-0.08-0.08-0.16-0.16-0.24-0.24c-6.399,0.725-7.85,2.034-10.8,6.24
	c-0.24-0.08-0.48-0.16-0.72-0.24c-1.068-0.577-1.479-1.445-1.68-2.88c-3.782,0.641-5.328,3.768-8.16,4.8c-2,0.32-4,0.64-6,0.96
	c-0.64-0.64-1.28-1.28-1.92-1.92c-1.68,0.64-3.36,1.28-5.04,1.92c-1.449,0.997-1.729,2.917-3.84,4.32
	c-2.629-0.307-4.308-1.525-6.48-2.4c-1.042-1.397-1.154-0.968-0.24-2.4c-0.64-0.24-1.28-0.48-1.92-0.72
	c-2.72,2.08-5.44,4.16-8.16,6.24c1.289,2.547,3.385,3.107,3.36,7.2c-0.902,1.034-1.319,1.729-2.64,2.4
	c-2.252-0.188-3.33-1.47-4.32-2.88c-0.32,0-0.64,0-0.96,0c-1.184,1.998-2.989,7.212-2.16,10.8c0.415,1.794,2.38,2.662,1.2,5.04
	c-0.577,1.33-1.125,1.727-3.12,1.68c-1.939,7.258,0.285,20.815,0.48,28.32c1.539,0.964,5.122,3.664,5.76,5.28
	c0.533,1.784-1.043,3.793,0,6.48c0.355,0.916,1.155,0.988,1.44,2.4c-0.686,1.19-1.182,1.486-2.88,1.68
	c-0.476,3.149,5.224,7.112,8.88,7.2c0.736-0.918,1.137-1.69,1.2-3.36c0.32-0.08,0.64-0.16,0.96-0.24c1.2,1.2,2.4,2.4,3.6,3.6
	c0.619,1.506-0.286,2.652-0.72,3.84c2.214,3.001,7.501,2.505,9.36-0.24c0.4,0.08,0.8,0.16,1.2,0.24c0.24,0.08,0.48,0.16,0.72,0.24
	c0.08,1.04,0.16,2.08,0.24,3.12c2.984,0.78,6.384-0.532,8.64-0.96c2.08,0.48,4.16,0.96,6.24,1.44c0.08,0.64,0.16,1.28,0.24,1.92
	c2.08,0.32,4.16,0.64,6.24,0.96c0.477-1.554,2.63-2.78,3.84-1.44c-0.655,1.569-1.518,3.818-0.96,5.76
	c1.043,1.973,4.996,2.603,7.2,3.36c0.32,0,0.64,0,0.96,0c0-0.08,0-0.16,0-0.24c-0.56-0.64-1.12-1.28-1.68-1.92
	c1.161-2.885,2.771-3.317,5.52-4.56c1.511,0.578,2.469,0.958,3.12,2.4c-0.08,1.52-0.16,3.041-0.24,4.56
	c4.315,0.836,8.758-0.931,10.56-3.6c0.48,0,0.96,0,1.44,0c0.476,0.858,0.715,1.406,0.72,2.88c4.671,1.974,8.42-3.792,13.92-1.44
	c0.432,0.398,0.502,0.82,0.72,1.44c1.76,0.24,3.52,0.48,5.28,0.72c1.342-1.153,2.102-2.288,4.56-2.4c1.04,1.12,2.08,2.24,3.12,3.36
	c0,0.8,0,1.6,0,2.4c-0.64,0.16-1.28,0.32-1.92,0.48c-0.08,0.16-0.16,0.32-0.24,0.48c0,0.16,0,0.32,0,0.48
	c2.892,1.146,6.659,2.16,10.32,2.16c0.08-2,0.16-4,0.24-6c0.789-0.457,1.575-0.908,2.64-0.48c1.153,0.797,1.09,2.532,0.96,4.56
	c0.874,0.536,1.236,1.011,1.92,1.68c4.022-0.265,4.667-2.924,6.96-4.8c0.981,0.771,1.24,1.265,1.2,3.12
	c3.623,0.844,5.82-2.168,8.16-3.12c3.086-1.254,5.204,1.485,6.48,1.92c4.202,1.432,5.514-1.364,8.16-1.92
	c-0.392,2.07-0.831,3.779-0.72,6c1.679,1.303,5.395,1.842,7.92,2.16c0.08,0,0.16,0,0.24,0c0.08-0.16,0.16-0.32,0.24-0.48
	c-0.56-0.48-1.12-0.96-1.68-1.44c-0.377-0.936-0.021-1.717,0.24-2.64c1.555-1.067,3.806-2.704,6-1.68
	c1.592,1.03,1.157,3.001,0.96,5.28c0.971,0.433,6.022,0.207,7.68-0.72c0.88-1.12,1.76-2.24,2.64-3.36
	c0.889,0.642,1.104,1.188,1.2,2.64c3.738,1.585,7.625-2.621,12.96-2.64c0.08,0.48,0.16,0.96,0.24,1.44
	c1.84,0.16,3.68,0.32,5.52,0.48c0.8-0.8,1.6-1.6,2.4-2.4c0.4,0,0.8,0,1.2,0c0.847,1.078,1.845,2.232,3.12,2.88
	c0.16,0.88,0.32,1.76,0.48,2.64c-0.56,0.08-1.12,0.16-1.68,0.24c-0.16,0.24-0.32,0.48-0.48,0.72c0,0.08,0,0.16,0,0.24
	c2.781,0.64,7.084,2.144,9.84,1.44c0.24-2.08,0.48-4.16,0.72-6.24c0.56,0,1.12,0,1.68,0c0.419,1.102,0.533,2.617,0.48,4.32
	c1.254,0.463,1.356,0.664,2.16,1.44c3.11-0.174,4.675-2.371,6-4.32c0.16,0,0.32,0,0.48,0c0.16,0.08,0.32,0.16,0.48,0.24
	c0.16,0.64,0.32,1.28,0.48,1.92c0,0.16,0,0.32,0,0.48c5.218-0.441,6.17-3.199,12.24-3.12c0.08,0.4,0.16,0.8,0.24,1.2
	c1.18,0.567,3.402,0.546,5.28,0.48c0.88-0.72,1.76-1.44,2.64-2.16c-0.327,2.179-0.867,3.835-0.24,6c2.4,0.56,4.8,1.12,7.2,1.68
	c0.08,0,0.16,0,0.24,0c0.08-0.16,0.16-0.32,0.24-0.48c-0.64-0.48-1.28-0.96-1.92-1.44c0.16-0.72,0.32-1.44,0.48-2.16
	c1.634-1.009,3.449-1.434,6-1.68c0.634,1.33,0.332,2.888,0.24,4.8c0.4,0.16,0.8,0.32,1.2,0.48c2.16-0.56,4.32-1.12,6.48-1.68
	c1.383-0.975,0.479-2.359,2.64-2.88c0.32,0.96,0.64,1.92,0.96,2.88c4.034,0.044,5.884-3.179,11.04-3.12
	c1.424,1.268,2.91,1.708,5.76,1.68c0.908-0.892,1.704-1.759,3.12-2.16c1.12,1.04,2.24,2.08,3.36,3.12c0.08,0.8,0.16,1.6,0.24,2.4
	c-0.56,0.08-1.12,0.16-1.68,0.24c-0.16,0.16-0.32,0.32-0.48,0.48c3.04,0.56,6.081,1.12,9.12,1.68c1.42-2.033-0.511-5.793,1.92-6.72
	c1.257,2.506,0.579,5.157,3.84,5.76c1.881-0.836,3.327-2.137,4.08-4.08c0.16-0.08,0.32-0.16,0.48-0.24
	c0.24,0.24,0.48,0.48,0.72,0.72c0.08,0.56,0.16,1.12,0.24,1.68c4.874-0.372,5.513-3.176,11.04-3.12c1.033,1.104,5.06,2.718,6,0.24
	c0.479,0,0.96,0,1.44,0c-0.377,1.885-0.52,3.188,0.24,4.8c2.24,0.4,4.48,0.8,6.72,1.2c0-0.08,0-0.16,0-0.24
	c-0.577-0.695-0.508-0.759-1.68-0.96c-0.003-1.375,0.105-1.96,0.72-2.64c0.588-1.036,3.208-2.456,4.56-1.92
	c1.548,0.876,1.213,2.759,0.96,4.8c0.16,0.16,0.32,0.32,0.48,0.48c2.24-0.4,4.48-0.8,6.72-1.2c0.4-0.88,0.8-1.76,1.2-2.64
	c1.209-0.498,1.908-0.034,1.92,1.92c3.201,0.667,4.605-2.042,6.72-2.88c2.499-0.989,5.832,1.194,9.12,1.2
	c2.123,8.536,5.562,18.569,14.16,20.64c4.32,0.16,8.641,0.32,12.96,0.48c3.92,0.08,7.84,0.16,11.76,0.24
	c0.48,0.96,0.96,1.92,1.44,2.88c-1.28,1.52-2.56,3.04-3.84,4.56c-0.63,0.521-0.686,0.475-0.96,1.44c0.72,0,1.44,0,2.16,0
	c0,1.2,0,2.4,0,3.6c2.162,1.358,5.812,2.133,7.92,3.84c1.942,1.572,1.423,4.676,4.08,5.76c4.649,1.897,12.471,0.481,18,0.48
	c4.968-0.001,13.49,1.525,13.68-3.6c4.185-0.984,9.767,0.853,14.64,0.96c2.391,7.224,10.047,5.854,18.72,7.2
	c17.679,0.88,35.362,1.76,53.04,2.64c7.52,0.48,15.041,0.96,22.56,1.44c9.814,1.529,22.369,2.207,32.4,0.24
	c4.319-1.12,8.641-2.24,12.96-3.36c2.64-1.52,5.28-3.04,7.92-4.56c5.04-0.08,10.081-0.16,15.12-0.24
	c2.839-0.442,5.335-1.234,7.68-1.68c16.638-0.48,33.282-0.96,49.92-1.44c16.958-1.04,33.922-2.08,50.88-3.12
	c2.521-0.662,3.436-3.171,6.24-3.6c7.443-1.138,14.659,0.6,21.12-1.2c8.399-2.34,8.162-18.247,11.04-26.16
	C775.334,382.301,772.836,377.351,770.23,376.296z M460.63,179.736c-1.52,0.88-3.041,1.76-4.56,2.64
	c-1.52,1.52-3.041,3.04-4.56,4.56c-2.88,1.847-12.016,2.917-16.32,3.12c0.16-3.36,0.32-6.72,0.48-10.08
	c8.319-0.16,16.641-0.32,24.96-0.48C460.63,179.576,460.63,179.656,460.63,179.736z M468.07,161.016
	c-5.36,0.56-10.721,1.12-16.08,1.68c-5.368,1.11-10.402,3.342-15.12,4.32c1.312-15.845,15.08-11.271,27.12-15.84
	c2.405,1.37,2.722,7.141,4.08,9.6C468.07,160.856,468.07,160.936,468.07,161.016z M472.39,80.856c-2.24,2.16-4.48,4.32-6.72,6.48
	c-7.743,10.297-8.183,22.214-7.68,38.88c-7.839,0.72-15.681,1.44-23.52,2.16c-2.871-2.748-5.393-7.937-9.84-8.88
	c-5.93-1.258-14.147,2.955-18.96-0.24c-6.498-4.313-3.773-19.311-3.6-28.56c23.438-3.359,46.883-6.72,70.32-10.08
	C472.39,80.696,472.39,80.776,472.39,80.856z M482.709,65.016c-6.533,3.302-17.011,2.311-24.72,3.84
	c-18.158,2.8-36.322,5.6-54.48,8.4c-1.423-6.285,2.023-17.871,2.64-24.48c14.903-5.86,33.437-7.239,50.16-10.56
	c5.919-0.8,11.841-1.6,17.76-2.4C483.386,39.697,484.318,56.176,482.709,65.016z M586.63,130.296c-3.68,0.48-7.36,0.96-11.04,1.44
	c-0.64,0.8-1.28,1.6-1.92,2.4c-1.04,0.24-2.08,0.48-3.12,0.72c-1.84,1.36-3.68,2.72-5.52,4.08c-5.551,2.102-11.551,1.518-16.08,4.32
	c-5.759,5.439-11.521,10.881-17.28,16.32c-4.16,0.64-8.321,1.28-12.48,1.92c-4.555-2.637-16.685-12.038-14.64-20.64
	c1.508-6.344,6.579-10.811,7.92-17.76c1.283-6.647-1.539-12.625-1.92-18.48c5.199-0.8,10.4-1.6,15.6-2.4
	c2.56-0.16,5.12-0.32,7.68-0.48c21.828-0.022,36,4.828,45.36,17.04c2.479,3.76,4.96,7.521,7.44,11.28
	C586.63,130.136,586.63,130.216,586.63,130.296z M741.67,373.896c-1.916,0.878-34.32,1.68-34.32,1.68
	c-0.08-0.08-0.16-0.16-0.24-0.24c-0.16,0-0.32,0-0.48,0c2.88-13.599,5.76-27.201,8.64-40.8c1.303-7.289-3.15-14.3-9.6-14.4
	c-0.485-2.993,3.005-6.434,4.08-9.12c9.679,5.12,19.361,10.241,29.04,15.36c1.36,2.64,2.72,5.28,4.08,7.92
	C745.654,344.545,741.737,362.867,741.67,373.896z">
<animate attributeName="fill" begin="0;" dur="1" values="#2e5988; #000; #d12023; #000; #f2bf4b;" calcMode="discrete" repeatCount="indefinite" />
	</path>
</svg>
