<?xml version="1.0" encoding="utf-8"?>
<!-- Generator: Adobe Illustrator 14.0.0, SVG Export Plug-In . SVG Version: 6.00 Build 43363)  -->
<!DOCTYPE svg PUBLIC "-//W3C//DTD SVG 1.1//EN" "http://www.w3.org/Graphics/SVG/1.1/DTD/svg11.dtd">
<svg version="1.1" id="Calque_3" xmlns="http://www.w3.org/2000/svg" xmlns:xlink="http://www.w3.org/1999/xlink" x="0px" y="0px"
	 width="396.835px" height="384.917px" viewBox="0 0 396.835 384.917" enable-background="new 0 0 396.835 384.917"
	 xml:space="preserve">
<path d="M276.582,0c4.16,0,8.319,0,12.479,0c0.054,0.187,0.201,0.279,0.479,0.24c9.705,0.287,19.512,0.72,29.28,0.72
	c9.593,0,19.05,1.171,28.079,1.92c4.623,0.383,9.072,0.645,13.439,1.44c7.975,1.453,17.312,3.503,22.32,7.92
	c5.604,4.942,6.637,12.87,7.439,22.56c0.389,4.691,0.721,9.489,0.96,14.16c0.483,9.451,0.252,19.427,0.722,29.28
	c0.444,9.377,1.198,19.068,1.198,28.8c0,20.306-0.554,40.305,0.96,59.28c0.746,9.358,1.755,18.608,2.16,27.84
	c0.428,9.731,0.24,19.781,0.24,29.76c0,9.947,0.375,19.853,0.479,29.761c0.101,9.606-0.427,19.532-0.479,29.521
	c-0.055,9.973,0,20.062,0,30.24c0,10.08,0.231,20.066-0.961,29.041c-0.569,4.289-1.557,8.691-2.399,12.719
	c-3.091,14.768-7.467,23.76-25.438,23.76c-10.213,0-21.894-2.047-32.4,0c-4.627,0.902-9.092,2.312-13.68,3.361
	c-14.437,3.295-31.377,2.398-48.961,2.398c-11.391,0-22.611,0.443-33.6,0c-5.49-0.221-10.949-0.52-16.32-0.721
	c-5.752-0.215-11.393,0.018-17.039-0.24c-10.706-0.484-21.263-1.557-31.681-2.398c-5.448-0.441-10.482-0.406-15.84,0.238
	c-5.374,0.648-10.854,1.201-16.32,0.961c-4.934-0.217-9.557-1.463-14.4-2.641c-13.954-3.391-31.526-2.496-47.28-0.24
	c-9.479,1.359-18.798,3.602-30.48,3.602c-11.135,0-23.004,2.244-32.64-0.24c-7.83-2.018-14.873-9.629-16.32-17.76
	c-0.912-5.123-0.48-10.803-0.48-16.561c0-5.666-0.005-11.469,0.24-17.041c0.482-10.971,1.614-21.289,2.4-31.92
	c0.789-10.663,0.72-21.631,0.72-33.6c0-11.447,0.72-22.488,0.72-33.359c0-11.076,0.809-21.979,1.68-32.641
	c0.832-10.181,2.528-20.743,2.64-31.44c0.059-5.618-0.179-11.339,0-17.04c0.173-5.518,0.539-11.196,0.48-16.8
	c-0.114-10.856-0.96-21.875-0.96-33.12c0-10.966-0.661-22.006-1.44-32.88C5.87,58.97,4.989,47.479,6.1,36.72
	c0.574-5.566,0.509-11.113,1.44-15.6C10.726,5.759,28.81,9.414,46.42,8.64c11.634-0.512,22.861-0.845,33.12-1.2
	c22.556-0.78,45.827,0.689,66.72-0.72c10.583-0.713,21.088-1.669,31.68-2.4c10.52-0.725,21.015-2.171,31.681-2.64
	C231.468,0.72,253.546,1.279,276.582,0z">

	<animate attributeName="fill" begin="0;" dur="1" values="#2e5988; #000; #d12023; #000; #f2bf4b;" calcMode="discrete" repeatCount="indefinite" />

	</path>
</svg>
